HIERARCHY
ROOT Hips
{
 OFFSET 0.000000 0.000000 0.000000
 CHANNELS 6 Xposition Yposition Zposition Yrotation Xrotation Zrotation
 JOINT Chest
 {
  OFFSET 0.000000 13.173100 -0.061900
  CHANNELS 3 Yrotation Xrotation Zrotation
  JOINT Chest2
  {
   OFFSET 0.000000 8.040800 0.126200
   CHANNELS 3 Yrotation Xrotation Zrotation
   JOINT Chest3
   {
    OFFSET 0.000000 7.994400 0.000000
    CHANNELS 3 Yrotation Xrotation Zrotation
    JOINT Chest4
    {
     OFFSET 0.000000 7.986200 0.000000
     CHANNELS 3 Yrotation Xrotation Zrotation
     JOINT Neck
     {
      OFFSET 0.000000 12.259400 0.000000
      CHANNELS 3 Yrotation Xrotation Zrotation
      JOINT Head
      {
       OFFSET 0.000000 7.518700 0.267100
       CHANNELS 3 Yrotation Xrotation Zrotation
       End Site
       {
        OFFSET 0.000000 13.617700 0.141000
       }
      }
     }
     JOINT RightCollar
     {
      OFFSET -2.983800 8.314300 0.000000
      CHANNELS 3 Yrotation Xrotation Zrotation
      JOINT RightShoulder
      {
       OFFSET -16.133400 0.000000 0.000000
       CHANNELS 3 Yrotation Xrotation Zrotation
       JOINT RightElbow
       {
        OFFSET 0.000000 -29.822100 0.000000
        CHANNELS 3 Yrotation Xrotation Zrotation
        JOINT RightWrist
        {
         OFFSET 0.000000 -24.437700 0.010900
         CHANNELS 3 Yrotation Xrotation Zrotation
         End Site
         {
          OFFSET 0.000000 -18.312300 0.000000
         }
        }
       }
      }
     }
     JOINT LeftCollar
     {
      OFFSET 2.983800 8.314300 0.000000
      CHANNELS 3 Yrotation Xrotation Zrotation
      JOINT LeftShoulder
      {
       OFFSET 16.133400 0.000000 0.000000
       CHANNELS 3 Yrotation Xrotation Zrotation
       JOINT LeftElbow
       {
        OFFSET 0.000000 -29.822100 0.000000
        CHANNELS 3 Yrotation Xrotation Zrotation
        JOINT LeftWrist
        {
         OFFSET 0.000000 -24.437700 0.010900
         CHANNELS 3 Yrotation Xrotation Zrotation
         End Site
         {
          OFFSET 0.000000 -18.312300 0.000000
         }
        }
       }
      }
     }
    }
   }
  }
 }
 JOINT RightHip
 {
  OFFSET -11.206700 0.306200 0.030900
  CHANNELS 3 Yrotation Xrotation Zrotation
  JOINT RightKnee
  {
   OFFSET 0.000000 -57.334900 0.009400
   CHANNELS 3 Yrotation Xrotation Zrotation
   JOINT RightAnkle
   {
    OFFSET 0.000000 -43.376200 0.036600
    CHANNELS 3 Yrotation Xrotation Zrotation
    JOINT RightToe
    {
     OFFSET 0.000000 -10.035500 18.363100
     CHANNELS 3 Yrotation Xrotation Zrotation
     End Site
     {
      OFFSET 0.000000 -1.618500 7.239000
     }
    }
   }
  }
 }
 JOINT LeftHip
 {
  OFFSET 11.206700 0.306200 0.030900
  CHANNELS 3 Yrotation Xrotation Zrotation
  JOINT LeftKnee
  {
   OFFSET 0.000000 -57.334900 0.009400
   CHANNELS 3 Yrotation Xrotation Zrotation
   JOINT LeftAnkle
   {
    OFFSET 0.000000 -43.376200 0.036600
    CHANNELS 3 Yrotation Xrotation Zrotation
    JOINT LeftToe
    {
     OFFSET 0.000000 -10.035500 18.363100
     CHANNELS 3 Yrotation Xrotation Zrotation
     End Site
     {
      OFFSET 0.000000 -1.618500 7.239000
     }
    }
   }
  }
 }
}
MOTION
Frames: 12
Frame Time: 0.008333
0.000000 110.232800 0.000000 0.000000 -5.767877 0.000000 0.000000 11.653817 0.000000 0.000000 -5.885947 0.000000 0.000000 -0.000000 0.000000 0.000000 -0.000000 0.000000 0.000000 12.528835 0.000000 0.000000 0.711642 0.000000 0.000000 -0.000000 0.000000 0.000000 0.000000 -90.000000 0.000000 -2.309062 0.000000 0.000000 2.309062 0.000000 0.000000 -0.000000 0.000000 0.000000 -0.000000 90.000000 0.000000 -2.309062 0.000000 0.000000 2.309062 0.000000 0.000000 8.520406 0.000000 0.000000 1.905762 0.000000 -0.000000 -4.658285 0.000000 0.000000 -0.000000 0.000000 0.000000 8.520406 0.000000 0.000000 1.905762 0.000000 -0.000000 -4.658285 0.000000 0.000000 -0.000000 0.000000
-94.951364 64.246529 94.104250 174.187122 -38.092092 -2.653584 2.644817 21.513192 2.361904 0.329373 2.968328 0.431223 0.546324 4.860108 0.720779 2.471329 18.275993 3.022290 1.106754 13.554824 -1.562925 2.727251 -10.659371 -3.424328 -4.227191 -0.290110 -1.835617 2.495828 -9.433165 2.202046 -135.752082 -84.108721 145.463984 3.074609 1.687639 2.116361 -5.290732 1.525959 -0.148351 5.912352 -12.352759 2.745537 -157.725625 -67.196159 151.279250 -2.557739 -26.737337 15.313178 -4.303798 -42.766799 2.636356 -163.164941 85.799352 -158.824360 -1.448497 -12.302126 -2.443858 0.051603 -0.230497 0.050711 -0.949942 -39.589686 4.186390 67.114064 83.041333 56.632500 -5.951445 -11.190993 9.629585 0.415200 1.263950 0.277901
-94.950110 64.242915 94.103211 174.200402 -38.084706 -2.653345 2.635363 21.557133 2.371479 0.327416 2.946540 0.423588 0.542770 4.869987 0.720724 2.456564 18.325278 3.031894 1.143141 13.562205 -1.575305 2.786375 -10.578784 -3.434503 -4.228062 -0.317466 -1.866524 2.479900 -9.438377 2.161448 -135.660713 -84.060682 145.405154 3.077538 1.690505 2.105855 -5.343357 1.463458 -0.191414 5.882882 -12.788942 2.855526 -157.671517 -67.054696 151.230551 -2.469001 -26.797488 15.446486 -4.293147 -42.779633 2.629396 -163.120752 85.787745 -158.782714 -1.449822 -12.306822 -2.433875 0.052304 -0.231820 0.049848 -0.936014 -39.597363 4.179979 67.114312 83.045687 56.626690 -5.963549 -11.195232 9.634857 0.409784 1.267491 0.288024
-94.950170 64.238045 94.102170 174.220338 -38.073697 -2.650659 2.614185 21.574403 2.363178 0.326317 2.950888 0.423836 0.541124 4.880073 0.722036 2.447597 18.337995 3.031247 1.162492 13.557575 -1.582986 2.858989 -10.443407 -3.437105 -4.223246 -0.356407 -1.879947 2.448015 -9.389078 2.123319 -135.645037 -84.010402 145.427002 3.078101 1.691595 2.098314 -5.403739 1.435917 -0.220592 5.853494 -13.227468 2.957177 -157.576173 -66.942570 151.141622 -2.392656 -26.833055 15.553105 -4.285802 -42.796704 2.623327 -163.270193 85.777069 -158.948894 -1.470178 -12.317396 -2.410314 0.050197 -0.229331 0.047652 -0.921265 -39.609080 4.163167 67.107066 83.048900 56.612722 -5.972942 -11.198550 9.644333 0.400330 1.270311 0.285139
-94.948944 64.233226 94.099963 174.233632 -38.068114 -2.649121 2.599718 21.596874 2.359164 0.326367 2.956177 0.426610 0.538139 4.891231 0.721041 2.438858 18.354967 3.031338 1.183359 13.548341 -1.590301 2.932562 -10.295335 -3.439432 -4.228439 -0.354006 -1.901499 2.418480 -9.382222 2.096177 -135.228438 -83.994244 145.018759 3.083102 1.660725 2.114683 -5.509138 1.409191 -0.252009 5.868017 -13.672633 3.053459 -157.427751 -66.853115 151.001316 -2.335434 -26.861690 15.661347 -4.284679 -42.807451 2.620793 -163.324534 85.764361 -159.013276 -1.472719 -12.328125 -2.400319 0.049699 -0.227215 0.046187 -0.885127 -39.615915 4.155660 67.085759 83.064317 56.577970 -5.989187 -11.197982 9.685337 0.412634 1.266182 0.273669
-94.944360 64.228832 94.096702 174.239792 -38.069048 -2.658350 2.596347 21.617929 2.369052 0.326512 2.970220 0.429308 0.536918 4.879352 0.717516 2.422312 18.410722 3.038242 1.226743 13.579261 -1.593322 2.993015 -10.186804 -3.446966 -4.249766 -0.322174 -1.926046 2.402773 -9.420224 2.072810 -135.024082 -83.945084 144.837651 3.083424 1.678802 2.111760 -5.543050 1.344429 -0.268542 5.817792 -14.096087 3.129711 -157.219826 -66.785614 150.803443 -2.286677 -26.900721 15.791787 -4.277826 -42.811054 2.638784 -163.241765 85.752378 -158.936744 -1.480156 -12.333623 -2.384595 0.059272 -0.228573 0.043521 -0.832311 -39.616065 4.172218 67.013821 83.102778 56.506156 -6.036275 -11.203573 9.722565 0.436008 1.263987 0.265274
-94.945770 64.222738 94.093710 174.250921 -38.062182 -2.646441 2.579285 21.618938 2.349786 0.313684 3.032806 0.440114 0.546749 4.832726 0.707351 2.401761 18.451201 3.042883 1.282391 13.725785 -1.580112 3.047518 -10.160127 -3.469101 -4.251412 -0.319543 -1.947909 2.362201 -9.412400 2.057228 -135.123421 -83.876926 144.994002 3.082909 1.693235 2.103849 -5.554989 1.290828 -0.281698 5.741627 -14.518534 3.196226 -156.961689 -66.742926 150.556242 -2.237848 -26.959021 15.952018 -4.243748 -42.828752 2.617391 -163.208446 85.730665 -158.906173 -1.495033 -12.343788 -2.363327 0.062038 -0.228668 0.045007 -0.817154 -39.621811 4.156212 67.038798 83.104711 56.499196 -6.017185 -11.211465 9.756095 0.400816 1.264374 0.256851
-94.945092 64.216596 94.090555 174.260016 -38.055965 -2.644019 2.560118 21.642989 2.342393 0.318271 3.021351 0.438767 0.536845 4.861020 0.710505 2.389813 18.465041 3.044791 1.325983 13.822303 -1.573024 3.114427 -10.065407 -3.483784 -4.233205 -0.362014 -1.966461 2.297821 -9.354649 2.046611 -135.084676 -83.834902 144.992186 3.082970 1.687819 2.093364 -5.599307 1.254668 -0.288592 5.684678 -14.955341 3.246399 -156.662203 -66.723062 150.272021 -2.193316 -27.039334 16.155020 -4.236081 -42.842119 2.615740 -163.224990 85.715060 -158.929227 -1.502726 -12.355212 -2.350678 0.060691 -0.226857 0.044205 -0.781858 -39.628458 4.155119 66.998774 83.128192 56.447859 -6.037041 -11.218419 9.783067 0.401872 1.266905 0.263238
-94.944862 64.209540 94.088060 174.277404 -38.043725 -2.646742 2.533238 21.688796 2.345363 0.325340 2.982315 0.427098 0.530286 4.887878 0.716380 2.371112 18.476234 3.045281 1.364094 13.893960 -1.569867 3.182008 -9.930991 -3.489715 -4.239461 -0.350072 -1.992785 2.254162 -9.346685 2.047554 -135.082869 -83.806840 144.990606 3.084382 1.664214 2.108044 -5.643356 1.226345 -0.290114 5.607137 -15.388272 3.287684 -156.322165 -66.715516 149.959711 -2.156396 -27.147734 16.410708 -4.215332 -42.861338 2.604603 -163.146631 85.695506 -158.847480 -1.503936 -12.369738 -2.341035 0.064992 -0.225422 0.046604 -0.757503 -39.639430 4.156527 66.962487 83.147523 56.397335 -6.053418 -11.235066 9.792014 0.404592 1.272831 0.268339
-94.944063 64.203754 94.083734 174.283715 -38.040705 -2.645695 2.522232 21.699979 2.342310 0.322209 3.001813 0.432314 0.508946 4.934486 0.728989 2.361950 18.451716 3.031929 1.400230 13.967775 -1.566507 3.245687 -9.792563 -3.494324 -4.271373 -0.283486 -2.023858 2.238056 -9.393188 2.051860 -135.313590 -83.757968 145.272017 3.089645 1.676558 2.061832 -5.738474 1.248445 -0.262478 5.573164 -15.854275 3.292078 -155.934200 -66.705887 149.622047 -2.124771 -27.297053 16.718511 -4.207368 -42.870910 2.602669 -163.149491 85.679000 -158.851072 -1.508221 -12.380877 -2.334942 0.067017 -0.225537 0.046378 -0.726926 -39.638393 4.170354 66.993910 83.164251 56.381017 -6.053406 -11.252257 9.854338 0.382016 1.272686 0.257081
-94.942954 64.198035 94.078961 174.300163 -38.038412 -2.653319 2.502415 21.711706 2.340865 0.314235 3.020224 0.436972 0.501693 4.942761 0.733219 2.343782 18.469219 3.033288 1.434421 14.038877 -1.564240 3.306192 -9.659136 -3.500273 -4.289604 -0.251536 -2.052909 2.211438 -9.408753 2.053042 -135.168205 -83.731413 145.101723 3.103978 1.664613 2.015227 -5.798232 1.263231 -0.245997 5.488383 -16.298339 3.313071 -155.471613 -66.673895 149.241262 -2.104382 -27.505951 17.095295 -4.211536 -42.877734 2.610604 -163.207181 85.664042 -158.919450 -1.520712 -12.393692 -2.319390 0.063123 -0.224115 0.046541 -0.706020 -39.638464 4.176207 66.966804 83.185715 56.347133 -6.074584 -11.272627 9.864560 0.400491 1.282980 0.266836
-94.941667 64.191249 94.074980 174.309495 -38.030622 -2.658797 2.465143 21.744550 2.346923 0.308470 3.032941 0.438864 0.507924 4.933615 0.725492 2.323773 18.489596 3.034639 1.467437 14.102129 -1.563321 3.365247 -9.540307 -3.508532 -4.290533 -0.236320 -2.084015 2.172923 -9.415024 2.056778 -135.057786 -83.689446 144.996556 3.120229 1.666010 1.979005 -5.837948 1.271404 -0.237928 5.383001 -16.719971 3.349210 -154.909928 -66.588916 148.787773 -2.127122 -27.789431 17.583913 -4.217171 -42.890053 2.613739 -163.248074 85.648929 -158.961119 -1.512531 -12.407824 -2.323012 0.057593 -0.221457 0.048387 -0.678902 -39.647273 4.179800 66.921301 83.210331 56.312628 -6.105061 -11.287334 9.857524 0.428439 1.293383 0.288372
